<?xml version="1.0" encoding="UTF-8" standalone="no"?>
<!-- Generator: Adobe Illustrator 16.0.4, SVG Export Plug-In . SVG Version: 6.00 Build 0)  -->

<svg
   xmlns:osb="http://www.openswatchbook.org/uri/2009/osb"
   xmlns:dc="http://purl.org/dc/elements/1.1/"
   xmlns:cc="http://creativecommons.org/ns#"
   xmlns:rdf="http://www.w3.org/1999/02/22-rdf-syntax-ns#"
   xmlns:svg="http://www.w3.org/2000/svg"
   xmlns="http://www.w3.org/2000/svg"
   xmlns:xlink="http://www.w3.org/1999/xlink"
   xmlns:sodipodi="http://sodipodi.sourceforge.net/DTD/sodipodi-0.dtd"
   xmlns:inkscape="http://www.inkscape.org/namespaces/inkscape"
   version="1.1"
   id="Capa_1"
   x="0px"
   y="0px"
   width="612px"
   height="792px"
   viewBox="0 0 612 792"
   enable-background="new 0 0 612 792"
   xml:space="preserve"
   inkscape:version="0.91 r13725"
   sodipodi:docname="lock8.svg"><metadata
     id="metadata9"><rdf:RDF><cc:Work
         rdf:about=""><dc:format>image/svg+xml</dc:format><dc:type
           rdf:resource="http://purl.org/dc/dcmitype/StillImage" /></cc:Work></rdf:RDF></metadata><defs
     id="defs7"><linearGradient
       id="linearGradient5685"
       osb:paint="solid"><stop
         style="stop-color:#000000;stop-opacity:1;"
         offset="0"
         id="stop5687" /></linearGradient><linearGradient
       inkscape:collect="always"
       id="linearGradient5671"><stop
         style="stop-color:#c62b00;stop-opacity:1"
         offset="0"
         id="stop5659" /><stop
         style="stop-color:#d45c00;stop-opacity:1"
         offset="1"
         id="stop5661" /></linearGradient><linearGradient
       id="linearGradient5581"
       osb:paint="solid"><stop
         style="stop-color:#000000;stop-opacity:1;"
         offset="0"
         id="stop5583" /></linearGradient><linearGradient
       inkscape:collect="always"
       xlink:href="#linearGradient5671"
       id="linearGradient5663"
       x1="241.83231"
       y1="625.21912"
       x2="241.83231"
       y2="110.28309"
       gradientUnits="userSpaceOnUse" /></defs><sodipodi:namedview
     pagecolor="#ffffff"
     bordercolor="#666666"
     borderopacity="1"
     objecttolerance="10"
     gridtolerance="10"
     guidetolerance="10"
     inkscape:pageopacity="0"
     inkscape:pageshadow="2"
     inkscape:window-width="1920"
     inkscape:window-height="1080"
     id="namedview5"
     showgrid="false"
     inkscape:zoom="0.95934249"
     inkscape:cx="52.874261"
     inkscape:cy="384.94539"
     inkscape:window-x="0"
     inkscape:window-y="0"
     inkscape:window-maximized="0"
     inkscape:current-layer="Capa_1" /><path
     d="M336.294,277.272c7.956,8.16,12.138,17.952,12.546,29.376v36.72h-83.844v-36.72c0-11.424,4.08-21.216,12.24-29.376  c8.16-8.16,17.952-12.24,29.376-12.24C318.444,265.032,328.338,269.112,336.294,277.272z M612,396  c0,28.152-3.672,55.284-11.016,81.396c-7.346,26.11-17.646,50.488-30.906,73.134c-13.26,22.644-29.172,43.248-47.736,61.812  c-18.562,18.564-39.168,34.478-61.812,47.736c-22.646,13.26-47.022,23.562-73.135,30.906C361.284,698.328,334.152,702,306,702  c-28.152,0-55.284-3.672-81.396-11.016c-26.112-7.346-50.49-17.646-73.134-30.906c-22.644-13.26-43.248-29.172-61.812-47.736  c-18.564-18.562-34.476-39.168-47.736-61.812c-13.26-22.646-23.562-47.022-30.906-73.134C3.672,451.284,0,424.152,0,396  c0-28.152,3.672-55.284,11.016-81.396c7.344-26.112,17.646-50.49,30.906-73.134c13.26-22.644,29.172-43.248,47.736-61.812  c18.564-18.564,39.168-34.476,61.812-47.736c22.644-13.26,47.022-23.562,73.134-30.906C250.716,93.672,277.848,90,306,90  c42.024,0,81.702,8.058,119.034,24.174c37.332,16.116,69.768,37.944,97.308,65.484s49.368,59.976,65.484,97.308S612,353.976,612,396  z M457.777,354.384L457.777,354.384c-0.001-3.264-1.123-5.916-3.367-7.956c-2.244-2.04-4.998-3.06-8.262-3.06h-15.912h-22.032  V307.26v-0.612c0-13.872-2.652-26.928-7.956-39.168s-12.546-22.95-21.726-32.13c-9.182-9.18-19.992-16.422-32.438-21.726  c-12.444-5.304-25.602-7.956-39.474-7.956c-13.873,0-26.928,2.652-39.168,7.956c-12.24,5.304-22.95,12.546-32.13,21.726  c-9.18,9.18-16.422,19.89-21.726,32.13c-5.304,12.24-7.956,25.296-7.956,39.168v36.72h-18.36H171.36c-3.264,0-5.916,1.02-7.956,3.06  c-2.04,2.04-3.06,4.692-3.06,7.956v165.24c0,3.264,1.02,6.018,3.06,8.262c2.04,2.244,4.692,3.366,7.956,3.366h274.79  c3.264,0,6.018-1.122,8.262-3.366s3.366-4.998,3.366-8.262V354.384z"
     id="path3"
     style="fill-opacity:1;fill:url(#linearGradient5663);stroke:#ffffff;stroke-opacity:1;stroke-width:1;stroke-miterlimit:4;stroke-dasharray:none;stroke-linejoin:round" /></svg>